<svg xmlns="http://www.w3.org/2000/svg" viewBox="0 0 512 512" width="512" height="512" role="img" aria-labelledby="ratchet-mark-title">
<title id="ratchet-mark-title">Ratchet mark</title>
<path d="M 215.84 94.93 L 226.44 58.20 L 285.56 58.20 L 296.16 94.93 L 318.18 102.09 L 348.35 78.60 L 396.18 113.35 L 383.16 149.30 L 396.78 168.03 L 434.99 166.76 L 453.26 222.99 L 421.60 244.42 L 421.60 267.58 L 453.26 289.01 L 434.99 345.24 L 396.78 343.97 L 383.16 362.70 L 396.18 398.65 L 348.35 433.40 L 318.18 409.91 L 296.16 417.07 L 285.56 453.80 L 226.44 453.80 L 215.84 417.07 L 193.82 409.91 L 163.65 433.40 L 115.82 398.65 L 128.84 362.70 L 115.22 343.97 L 77.01 345.24 L 58.74 289.01 L 90.40 267.58 L 90.40 244.42 L 58.74 222.99 L 77.01 166.76 L 115.22 168.03 L 128.84 149.30 L 115.82 113.35 L 163.65 78.60 L 193.82 102.09 Z M 376.00 256.00 A 120 120 0 1 0 136.00 256.00 A 120 120 0 1 0 376.00 256.00 Z" fill="#17191E" fill-rule="evenodd"/>
<path d="M256 150 L308 226 L274 226 L274 366 L238 366 L238 226 L204 226 Z" fill="#17191E"/><path d="M256 150 L308 226 L204 226 Z" fill="#E8A93A"/>
</svg>
